<svg width="354" height="147" viewBox="0 0 354 147" fill="none" xmlns="http://www.w3.org/2000/svg">
<path d="M310.54 114.57V74.0109C310.149 74.2086 309.667 74.4503 309.112 74.727C307.516 75.5213 305.307 76.6038 302.85 77.7565C297.955 80.0532 292.018 82.6577 288.017 83.7922C286.447 84.2374 284.834 84.3162 283.292 84.31L32.2521 83.2994C14.8966 83.2295 0.790161 97.2794 0.790161 114.635C0.790161 131.941 14.8196 145.971 32.1259 145.971H279.14C296.482 145.971 310.54 131.912 310.54 114.57Z" fill="white" stroke="#D9D9D9" stroke-width="1.58036"/>
<path d="M27.8865 123.689C22.9722 123.689 19.847 120.182 19.847 115.196V114.623C19.847 109.613 22.9722 106.13 27.8865 106.13C32.8247 106.13 35.9499 109.613 35.9499 114.623V115.196C35.9499 120.182 32.8247 123.689 27.8865 123.689ZM27.8865 121.303C31.1787 121.303 33.0633 118.893 33.0633 115.196V114.623C33.0633 110.926 31.1787 108.516 27.8865 108.516C24.6182 108.516 22.7098 110.926 22.7098 114.623V115.196C22.7098 118.893 24.6421 121.303 27.8865 121.303ZM41.0795 105.725V109.303H38.3361V105.725H41.0795ZM38.3838 111.093H41.0079V123.378H38.3838V111.093ZM46.2975 118.559H44.5798L44.055 111.116V106.441H46.8223V111.116L46.2975 118.559ZM46.87 123.378H44.0311V120.516H46.87V123.378ZM62.0361 123.689C57.2411 123.689 54.1159 120.229 54.1159 115.196V114.623C54.1159 109.637 57.2649 106.13 62.06 106.13C66.1394 106.13 68.8828 108.707 69.2168 112.595H66.4018C66.0678 110.043 64.4456 108.516 62.0361 108.516C58.8633 108.516 56.9787 111.021 56.9787 114.623V115.196C56.9787 118.798 58.8871 121.279 62.0361 121.279C64.6126 121.279 66.2587 119.561 66.378 116.985H69.2168C68.9544 120.85 66.2587 123.689 62.0361 123.689ZM77.0468 123.689C73.373 123.689 70.9874 121.16 70.9874 117.414V117.057C70.9874 113.311 73.373 110.806 77.0468 110.806C80.7445 110.806 83.1301 113.311 83.1301 117.057V117.414C83.1301 121.16 80.7445 123.689 77.0468 123.689ZM77.0468 121.565C79.2893 121.565 80.4583 120.062 80.4583 117.414V117.057C80.4583 114.409 79.2893 112.929 77.0468 112.929C74.8282 112.929 73.6593 114.409 73.6593 117.057V117.414C73.6593 120.062 74.8282 121.565 77.0468 121.565ZM88.1423 123.378H85.5182V111.093H88.0469L88.1185 113.001C88.7387 111.832 89.9793 110.806 91.9116 110.806C93.7485 110.806 95.0129 111.641 95.5854 113.192C96.4443 111.689 97.8279 110.806 99.641 110.806C102.456 110.806 103.744 112.619 103.744 115.458V123.378H101.12V115.983C101.12 113.955 100.381 112.977 98.7583 112.977C96.993 112.977 95.9671 114.289 95.9671 116.556V123.378H93.343V116.007C93.343 114.003 92.6273 112.977 91.0051 112.977C89.2397 112.977 88.1423 114.265 88.1423 116.579V123.378ZM112.12 123.689C108.446 123.689 106.061 121.16 106.061 117.414V117.057C106.061 113.311 108.446 110.806 112.12 110.806C115.818 110.806 118.203 113.311 118.203 117.057V117.414C118.203 121.16 115.818 123.689 112.12 123.689ZM112.12 121.565C114.362 121.565 115.531 120.062 115.531 117.414V117.057C115.531 114.409 114.362 112.929 112.12 112.929C109.901 112.929 108.732 114.409 108.732 117.057V117.414C108.732 120.062 109.901 121.565 112.12 121.565ZM127.904 127.434H125.256V111.093H127.713L127.785 113.12C128.381 111.951 129.813 110.806 131.912 110.806C135.133 110.806 137.16 113.383 137.16 117.057V117.414C137.16 121.088 135.085 123.689 131.841 123.689C129.932 123.689 128.572 122.687 127.904 121.518V127.434ZM131.196 121.565C133.296 121.565 134.489 120.062 134.489 117.414V117.057C134.489 114.409 133.296 112.882 131.196 112.882C129.002 112.882 127.809 114.409 127.809 117.057V117.414C127.809 120.062 129.002 121.565 131.196 121.565ZM145.125 123.689C141.451 123.689 139.066 121.16 139.066 117.414V117.057C139.066 113.311 141.451 110.806 145.125 110.806C148.823 110.806 151.209 113.311 151.209 117.057V117.414C151.209 121.16 148.823 123.689 145.125 123.689ZM145.125 121.565C147.368 121.565 148.537 120.062 148.537 117.414V117.057C148.537 114.409 147.368 112.929 145.125 112.929C142.907 112.929 141.738 114.409 141.738 117.057V117.414C141.738 120.062 142.907 121.565 145.125 121.565ZM158.089 123.689C154.916 123.689 152.936 122.186 152.697 119.561H155.226C155.441 121.017 156.49 121.708 158.113 121.708C159.592 121.708 160.594 121.112 160.594 120.015C160.594 119.037 159.902 118.559 157.564 118.13C154.582 117.629 153.127 116.675 153.127 114.48C153.127 112.285 155.107 110.806 157.922 110.806C160.88 110.806 162.717 112.214 162.955 114.647H160.451C160.26 113.407 159.305 112.739 157.898 112.739C156.538 112.739 155.655 113.335 155.655 114.337C155.655 115.291 156.347 115.744 158.59 116.102C161.691 116.603 163.194 117.629 163.194 119.776C163.194 122.114 161.166 123.689 158.089 123.689ZM169.766 123.689C166.593 123.689 164.613 122.186 164.375 119.561H166.903C167.118 121.017 168.168 121.708 169.79 121.708C171.269 121.708 172.271 121.112 172.271 120.015C172.271 119.037 171.579 118.559 169.241 118.13C166.259 117.629 164.804 116.675 164.804 114.48C164.804 112.285 166.784 110.806 169.599 110.806C172.557 110.806 174.394 112.214 174.633 114.647H172.128C171.937 113.407 170.983 112.739 169.575 112.739C168.215 112.739 167.333 113.335 167.333 114.337C167.333 115.291 168.025 115.744 170.267 116.102C173.368 116.603 174.871 117.629 174.871 119.776C174.871 122.114 172.844 123.689 169.766 123.689ZM182.534 123.689C178.86 123.689 176.474 121.16 176.474 117.414V117.057C176.474 113.311 178.86 110.806 182.534 110.806C186.231 110.806 188.617 113.311 188.617 117.057V117.414C188.617 121.16 186.231 123.689 182.534 123.689ZM182.534 121.565C184.776 121.565 185.945 120.062 185.945 117.414V117.057C185.945 114.409 184.776 112.929 182.534 112.929C180.315 112.929 179.146 114.409 179.146 117.057V117.414C179.146 120.062 180.315 121.565 182.534 121.565ZM199.248 123.689C196.72 123.689 195.121 122.162 195.121 120.062C195.121 118.106 196.314 116.818 198.413 116.532L203.256 115.816V114.933C203.256 113.574 202.326 112.858 200.775 112.858C199.248 112.858 198.223 113.55 198.103 114.79H195.598C195.813 112.261 197.817 110.806 200.823 110.806C203.996 110.806 205.785 112.476 205.785 115.029V123.378H203.375L203.28 121.47C202.517 122.854 201.014 123.689 199.248 123.689ZM199.845 121.613C201.682 121.613 203.256 120.468 203.256 118.87V117.748L199.32 118.297C198.199 118.464 197.674 118.989 197.674 119.943C197.674 120.969 198.461 121.613 199.845 121.613ZM211.804 105.725V109.303H209.06V105.725H211.804ZM208.034 127.744C207.39 127.744 206.722 127.625 206.174 127.434V125.382C206.532 125.525 207.009 125.621 207.51 125.621C208.726 125.621 209.156 125.048 209.156 123.832V111.093H211.78V124.118C211.78 126.456 210.563 127.744 208.034 127.744ZM218.796 123.689C215.933 123.689 214.549 121.875 214.549 118.989V111.093H217.197V118.488C217.197 120.373 217.889 121.494 219.655 121.494C221.468 121.494 222.541 120.11 222.541 117.915V111.093H225.189V123.378H222.637L222.589 121.518C221.873 122.71 220.561 123.689 218.796 123.689ZM232.865 123.689C229.645 123.689 227.569 121.088 227.569 117.414V117.057C227.569 113.407 229.573 110.806 232.817 110.806C234.774 110.806 236.11 111.737 236.825 112.882V105.725H239.449V123.378H237.016L236.945 121.327C236.348 122.496 234.964 123.689 232.865 123.689ZM233.533 121.565C235.728 121.565 236.921 120.062 236.921 117.414V117.057C236.921 114.409 235.704 112.882 233.533 112.882C231.434 112.882 230.241 114.409 230.241 117.057V117.414C230.241 120.039 231.41 121.565 233.533 121.565ZM245.888 123.689C243.359 123.689 241.761 122.162 241.761 120.062C241.761 118.106 242.954 116.818 245.053 116.532L249.896 115.816V114.933C249.896 113.574 248.965 112.858 247.415 112.858C245.888 112.858 244.862 113.55 244.743 114.79H242.238C242.453 112.261 244.457 110.806 247.462 110.806C250.635 110.806 252.424 112.476 252.424 115.029V123.378H250.015L249.92 121.47C249.156 122.854 247.653 123.689 245.888 123.689ZM246.484 121.613C248.321 121.613 249.896 120.468 249.896 118.87V117.748L245.959 118.297C244.838 118.464 244.313 118.989 244.313 119.943C244.313 120.969 245.101 121.613 246.484 121.613ZM257.846 123.378H255.222V111.093H257.75L257.822 113.478C258.49 111.904 259.778 110.854 261.543 110.854C261.734 110.854 261.997 110.878 262.211 110.926V113.478C261.973 113.454 261.687 113.43 261.4 113.43C259.182 113.43 257.846 114.695 257.846 117.128V123.378ZM270.51 118.607H267.719V118.202C267.719 114.027 272.8 114.051 272.8 111.116V110.878C272.8 109.375 271.655 108.397 269.914 108.397C268.005 108.397 266.741 109.423 266.502 111.45H263.735C264.069 107.92 266.621 106.13 269.89 106.13C273.301 106.13 275.591 108.158 275.591 110.854V111.021C275.591 115.41 270.51 115.005 270.51 118.392V118.607ZM270.558 123.378H267.695V120.396H270.558V123.378Z" fill="black"/>
<circle cx="287.23" cy="24.1262" r="24.1004" fill="#4286F5"/>
<circle cx="348.074" cy="22.5458" r="5.92634" fill="#37A357"/>
<circle cx="328.714" cy="36.3739" r="11.8527" fill="#DA2630"/>
<circle cx="328.714" cy="67.1909" r="14.2232" fill="#F6BA00"/>
</svg>
